0 60 part field
0 Name: main.ldr
0 !LDRAW_ORG Model

1 4 -250 0 -150 1 0 0 0 1 0 0 0 1 3003.dat
1 1 -200 0 -150 1 0 0 0 1 0 0 0 1 3003.dat
1 2 -150 0 -150 1 0 0 0 1 0 0 0 1 3003.dat
1 14 -100 0 -150 1 0 0 0 1 0 0 0 1 3003.dat
1 15 -50 0 -150 1 0 0 0 1 0 0 0 1 3003.dat
1 4 0 0 -150 1 0 0 0 1 0 0 0 1 3003.dat
1 1 50 0 -150 1 0 0 0 1 0 0 0 1 3003.dat
1 2 100 0 -150 1 0 0 0 1 0 0 0 1 3003.dat
1 14 150 0 -150 1 0 0 0 1 0 0 0 1 3003.dat
1 15 200 0 -150 1 0 0 0 1 0 0 0 1 3003.dat
1 4 -250 0 -100 1 0 0 0 1 0 0 0 1 3003.dat
1 1 -200 0 -100 1 0 0 0 1 0 0 0 1 3003.dat
1 2 -150 0 -100 1 0 0 0 1 0 0 0 1 3003.dat
1 14 -100 0 -100 1 0 0 0 1 0 0 0 1 3003.dat
1 15 -50 0 -100 1 0 0 0 1 0 0 0 1 3003.dat
1 4 0 0 -100 1 0 0 0 1 0 0 0 1 3003.dat
1 1 50 0 -100 1 0 0 0 1 0 0 0 1 3003.dat
1 2 100 0 -100 1 0 0 0 1 0 0 0 1 3003.dat
1 14 150 0 -100 1 0 0 0 1 0 0 0 1 3003.dat
1 15 200 0 -100 1 0 0 0 1 0 0 0 1 3003.dat
1 4 -250 0 -50 1 0 0 0 1 0 0 0 1 3003.dat
1 1 -200 0 -50 1 0 0 0 1 0 0 0 1 3003.dat
1 2 -150 0 -50 1 0 0 0 1 0 0 0 1 3003.dat
1 14 -100 0 -50 1 0 0 0 1 0 0 0 1 3003.dat
1 15 -50 0 -50 1 0 0 0 1 0 0 0 1 3003.dat
1 4 0 0 -50 1 0 0 0 1 0 0 0 1 3003.dat
1 1 50 0 -50 1 0 0 0 1 0 0 0 1 3003.dat
1 2 100 0 -50 1 0 0 0 1 0 0 0 1 3003.dat
1 14 150 0 -50 1 0 0 0 1 0 0 0 1 3003.dat
1 15 200 0 -50 1 0 0 0 1 0 0 0 1 3003.dat
1 4 -250 0 0 1 0 0 0 1 0 0 0 1 3003.dat
1 1 -200 0 0 1 0 0 0 1 0 0 0 1 3003.dat
1 2 -150 0 0 1 0 0 0 1 0 0 0 1 3003.dat
1 14 -100 0 0 1 0 0 0 1 0 0 0 1 3003.dat
1 15 -50 0 0 1 0 0 0 1 0 0 0 1 3003.dat
1 4 0 0 0 1 0 0 0 1 0 0 0 1 3003.dat
1 1 50 0 0 1 0 0 0 1 0 0 0 1 3003.dat
1 2 100 0 0 1 0 0 0 1 0 0 0 1 3003.dat
1 14 150 0 0 1 0 0 0 1 0 0 0 1 3003.dat
1 15 200 0 0 1 0 0 0 1 0 0 0 1 3003.dat
1 4 -250 0 50 1 0 0 0 1 0 0 0 1 3003.dat
1 1 -200 0 50 1 0 0 0 1 0 0 0 1 3003.dat
1 2 -150 0 50 1 0 0 0 1 0 0 0 1 3003.dat
1 14 -100 0 50 1 0 0 0 1 0 0 0 1 3003.dat
1 15 -50 0 50 1 0 0 0 1 0 0 0 1 3003.dat
1 4 0 0 50 1 0 0 0 1 0 0 0 1 3003.dat
1 1 50 0 50 1 0 0 0 1 0 0 0 1 3003.dat
1 2 100 0 50 1 0 0 0 1 0 0 0 1 3003.dat
1 14 150 0 50 1 0 0 0 1 0 0 0 1 3003.dat
1 15 200 0 50 1 0 0 0 1 0 0 0 1 3003.dat
1 4 -250 0 100 1 0 0 0 1 0 0 0 1 3003.dat
1 1 -200 0 100 1 0 0 0 1 0 0 0 1 3003.dat
1 2 -150 0 100 1 0 0 0 1 0 0 0 1 3003.dat
1 14 -100 0 100 1 0 0 0 1 0 0 0 1 3003.dat
1 15 -50 0 100 1 0 0 0 1 0 0 0 1 3003.dat
1 4 0 0 100 1 0 0 0 1 0 0 0 1 3003.dat
1 1 50 0 100 1 0 0 0 1 0 0 0 1 3003.dat
1 2 100 0 100 1 0 0 0 1 0 0 0 1 3003.dat
1 14 150 0 100 1 0 0 0 1 0 0 0 1 3003.dat
1 15 200 0 100 1 0 0 0 1 0 0 0 1 3003.dat
